<svg width="176" height="152" viewBox="0 0 176 152" fill="none" xmlns="http://www.w3.org/2000/svg">
<path d="M65.1162 91.1271C75.2667 93.0845 85.9341 90.7385 96.1564 90.4075" stroke="#0B0B0F" stroke-width="1.43925" stroke-linejoin="round"/>
<path d="M33.9688 84.6936C35.6342 81.8151 37.3427 78.879 39.0368 75.9861C39.4388 75.2665 39.9772 73.4602 40.6305 73.0572C46.1221 69.7326 54.399 70.7688 60.63 70.2363C77.1408 68.797 93.6874 68.7971 110.22 68.1206" stroke="#0B0B0F" stroke-width="1.43925" stroke-linejoin="round"/>
<path d="M123.062 68.0919C124.813 67.7825 129.774 66.4008 131.676 67.3075C133.578 68.2143 135.201 71.359 136.701 72.9134C139.709 76.0222 141.977 79.462 144.734 82.7651C147.239 85.7587 150.29 88.7523 152.336 92.1202C152.522 92.4152 151.618 92.0267 151.309 91.9763L149.457 91.7172C147.596 91.4629 145.722 91.3163 143.844 91.2782" stroke="#0B0B0F" stroke-width="1.43925" stroke-linejoin="round"/>
<path d="M8.51367 111.485C12.7347 111.744 16.8983 111.291 21.1049 111.363" stroke="#0B0B0F" stroke-width="1.43925" stroke-linejoin="round"/>
<path d="M66.5088 109.693C76.4511 107.858 87.5708 108.88 97.7357 109.067" stroke="#0B0B0F" stroke-width="1.43925" stroke-linejoin="round"/>
<path d="M142.308 106.844C151.276 106.647 160.24 106.535 169.199 106.506" stroke="#0B0B0F" stroke-width="1.43925" stroke-linejoin="round"/>
<path d="M59.9482 118.257C73.2803 116.6 86.7231 116.013 100.148 116.501" stroke="#0B0B0F" stroke-width="1.43925" stroke-linejoin="round"/>
<path d="M48.0458 11.2993C45.6481 14.1778 43.0208 16.9844 40.8672 20.0787" stroke="#0B0B0F" stroke-width="1.43925" stroke-linejoin="round"/>
<path d="M51.7432 11.3496C47.8668 15.6674 43.8468 19.9851 40.5303 24.7346" stroke="#0B0B0F" stroke-width="1.43925" stroke-linejoin="round"/>
<path d="M56.107 10.9033C50.9528 17.0633 45.9708 23.3672 40.874 29.5632" stroke="#0B0B0F" stroke-width="1.43925" stroke-linejoin="round"/>
<path d="M60.1421 11.6877C53.7244 19.1143 46.8832 26.4401 41.126 34.4063" stroke="#0B0B0F" stroke-width="1.43925" stroke-linejoin="round"/>
<path d="M67.0197 10.1191C58.1398 20.0644 48.9871 29.7289 40.3584 39.89" stroke="#0B0B0F" stroke-width="1.43925" stroke-linejoin="round"/>
<path d="M71.6783 10.1765C60.6735 20.7046 51.0829 32.4849 40.6309 43.5239" stroke="#0B0B0F" stroke-width="1.43925" stroke-linejoin="round"/>
<path d="M76.2367 9.08276C70.4077 15.3291 65.196 21.8993 59.6398 28.3255C53.179 35.7593 46.1871 43.0347 40.2217 50.8642" stroke="#0B0B0F" stroke-width="1.43925" stroke-linejoin="round"/>
<path d="M82.0581 8.95312C77.9807 13.2061 74.4201 17.9125 70.6154 22.4101C66.5523 27.2532 62.0944 31.8372 57.938 36.6371C52.432 42.9626 45.9354 48.6261 40.8027 55.2394" stroke="#0B0B0F" stroke-width="1.43925" stroke-linejoin="round"/>
<path d="M87.4988 8.80908C76.3289 20.9084 65.183 33.0341 54.061 45.1861C50.0122 49.6478 46.2291 54.3542 42.0225 58.6575" stroke="#0B0B0F" stroke-width="1.43925" stroke-linejoin="round"/>
<path d="M93.2219 8.69409C79.281 22.9211 66.6611 38.4866 52.7274 52.6992C50.9041 54.563 49.3535 56.6715 47.4512 58.4562" stroke="#0B0B0F" stroke-width="1.43925" stroke-linejoin="round"/>
<path d="M99.725 7.98877C95.1307 12.58 91.1107 17.7397 86.6528 22.3813C78.8927 30.4339 70.6086 38.0187 62.9275 46.1289C59.1444 50.13 55.749 54.4693 51.8223 58.3625" stroke="#0B0B0F" stroke-width="1.43925" stroke-linejoin="round"/>
<path d="M104.727 7.56421C99.2645 13.4939 94.0169 19.6107 88.4248 25.4253C77.8651 36.3852 66.7957 46.8341 56.5088 58.0531" stroke="#0B0B0F" stroke-width="1.43925" stroke-linejoin="round"/>
<path d="M108.949 7.62183C95.1369 25.9291 77.5422 40.7822 62.46 57.9956" stroke="#0B0B0F" stroke-width="1.43925" stroke-linejoin="round"/>
<path d="M112.92 8.0896C104.428 19.8986 94.0044 30.5779 83.9831 41.0772C78.793 46.5176 73.2152 51.9148 68.6855 57.9452" stroke="#0B0B0F" stroke-width="1.43925" stroke-linejoin="round"/>
<path d="M76.2578 57.0961C88.8993 46.4384 98.3679 32.4705 108.712 19.6756C111.957 15.6744 114.907 11.5294 118.446 7.78735" stroke="#0B0B0F" stroke-width="1.43925" stroke-linejoin="round"/>
<path d="M122.187 6.77271C108.827 22.6404 97.2482 40.0194 84.7646 56.5708" stroke="#0B0B0F" stroke-width="1.43925" stroke-linejoin="round"/>
<path d="M125.911 7.28369C119.113 15.2427 112.989 23.8351 106.665 32.1395C104.275 35.3059 101.705 38.2995 99.4434 41.5666C96.0264 46.4889 93.076 51.7565 89.7451 56.7435" stroke="#0B0B0F" stroke-width="1.43925" stroke-linejoin="round"/>
<path d="M126.852 10.5364C123.93 15.0124 120.506 19.1719 117.348 23.4537C109.329 34.3848 101.483 45.3015 94.0674 56.6356" stroke="#0B0B0F" stroke-width="1.43925" stroke-linejoin="round"/>
<path d="M127.527 16.1206C123.371 20.3952 120.887 26.5408 117.592 31.4846C113.521 37.5942 108.705 43.1929 104.369 49.1082C102.56 51.5765 101.052 54.2464 99.3438 56.7794" stroke="#0B0B0F" stroke-width="1.43925" stroke-linejoin="round"/>
<path d="M127.757 23.2019C120.305 34.9894 109.753 44.5532 102.251 56.2615" stroke="#0B0B0F" stroke-width="1.43925" stroke-linejoin="round"/>
<path d="M128.072 28.9587C122.738 39.0911 114.655 47.5755 107.642 56.5348" stroke="#0B0B0F" stroke-width="1.43925" stroke-linejoin="round"/>
<path d="M128.712 34.1689C123.608 41.9121 117.226 48.7054 112.201 56.4773" stroke="#0B0B0F" stroke-width="1.43925" stroke-linejoin="round"/>
<path d="M129.049 39.7532C124.857 45.064 120.772 50.454 116.602 55.772" stroke="#0B0B0F" stroke-width="1.43925" stroke-linejoin="round"/>
<path d="M128.935 44.8914C126.006 48.8493 122.768 52.6489 119.646 56.4701" stroke="#0B0B0F" stroke-width="1.43925" stroke-linejoin="round"/>
<path d="M129.072 49.1802C127.392 51.3391 125.935 53.6275 124.047 55.5705" stroke="#0B0B0F" stroke-width="1.43925" stroke-linejoin="round"/>
<path d="M43.2002 12.127C41.8291 13.6813 40.5011 15.3437 39.2305 16.9844" stroke="#0B0B0F" stroke-width="1.43925" stroke-linejoin="round"/>
<path d="M129.365 55.9879C129.365 43.9917 129.193 31.5206 127.857 19.6252C127.592 17.2576 127.857 9.10429 126.68 7.24766C126.465 6.90224 124.333 6.92383 123.895 6.90944C121.239 6.83747 118.597 7.08215 115.941 7.16131C104.197 7.50673 92.5674 7.77298 80.8375 8.73728C69.883 9.64401 59.0074 10.4068 48.0816 11.6158C47.4643 11.6877 37.7301 12.0476 37.4932 12.2922C36.6461 13.1846 38.5484 14.5447 38.8428 15.7464C39.4033 18.157 39.6756 20.6259 39.654 23.101C39.7401 33.7083 38.6202 49.0723 41.2548 59.3917C41.2548 59.4349 43.6811 59.1974 43.9109 59.183C46.9689 59.0031 50.0342 58.8736 53.0995 58.8232C66.1932 58.6001 79.1721 57.2472 92.2443 56.8586C103.529 56.5204 114.799 56.6139 126.084 56.139C128.604 56.031 131.109 55.9735 133.6 55.6856L135.94 55.4338C134.907 42.5453 134.469 29.6208 134.045 16.6891C133.916 12.8319 133.866 8.97476 133.729 5.12477C133.729 4.20365 134.088 1.82888 133.607 1.05888C133.478 0.842993 130.355 1.28917 129.975 1.30356C126.134 1.48347 122.28 1.50505 118.439 1.65617C102.926 2.24626 87.4634 1.46188 71.9576 2.5701C62.9916 3.21056 54.1547 5.4486 45.1456 5.18953C41.1318 5.00699 37.11 5.12727 33.1143 5.54935C32.2385 5.65729 31.3555 5.76523 30.4797 5.83719C30.4079 5.83719 29.6183 5.88757 29.6183 5.90916C30.3864 19.5245 31.7719 33.2549 33.868 46.7551C34.6146 51.6485 35.3492 56.5468 36.0718 61.4498C36.3159 63.1553 37.2491 65.8324 36.8328 67.5091C33.9039 79.2965 21.3342 92.0483 13.4736 101.677C11.2554 104.397 9.23108 108.089 6.04378 109.773C4.95264 110.348 3.70356 110.917 2.45449 110.615C1.82995 110.463 0.580874 108.888 1.1408 109.211C3.45231 110.535 3.55282 114.285 3.85432 116.623C3.91175 117.084 3.90456 119.387 4.2276 119.603C5.168 120.229 8.71422 119.84 9.90586 119.811C14.6653 119.711 19.238 119.473 23.9615 119.905" stroke="#0B0B0F" stroke-width="1.43925" stroke-linejoin="round"/>
<path d="M39.9922 67.4442C49.913 67.2284 59.7764 65.7675 69.6685 65.1414C83.7098 64.2491 97.665 64.0908 111.764 63.8965C118.11 63.8101 124.441 63.4935 130.787 63.4503C131.943 63.4503 136.027 62.5796 136.91 63.1265C139.703 64.8176 144.024 72.2729 146.645 75.137C149.064 77.7637 151.54 80.3327 153.967 82.9594C155.812 84.9599 157.599 87.0396 159.566 88.9107C164.792 93.8977 171.052 100.533 174.813 106.844C175.345 107.736 174.584 110.809 174.533 111.881C174.469 113.104 174.95 116.012 174.39 117.041C174.099 117.08 173.805 117.08 173.514 117.041C170.966 116.969 168.424 116.911 165.876 116.882C162.452 116.846 159.006 116.336 155.575 116.537C150.349 116.847 144.721 117.796 139.487 117.156" stroke="#0B0B0F" stroke-width="1.43925" stroke-linejoin="round"/>
<path d="M53.9545 143.883C54.7441 136.377 54.8446 128.224 57.3571 121.013C60.164 112.953 70.2284 100.655 62.7913 91.8899C56.0291 83.9164 57.2279 100.525 55.7707 102.562C54.0837 104.958 51.5497 106.736 50.0278 109.276C49.9273 109.442 48.8792 111.809 49.2094 111.852C52.648 112.313 53.172 105.57 53.2797 103.749C53.4807 100.058 52.4829 95.0275 54.0478 91.6596C56.1296 87.2051 61.0685 82.9737 61.7648 77.8932C62.0376 75.9502 58.8575 74.0288 57.271 74.5253C54.2991 75.4537 52.246 78.9294 50.4872 81.3402C48.9008 83.4991 46.8979 85.6579 45.7637 88.1262C44.0767 91.6668 44.1988 96.4595 43.6963 100.36" stroke="#0B0B0F" stroke-width="1.43925" stroke-linejoin="round"/>
<path d="M27.8666 151C27.6081 143.25 29.3023 135.384 28.7423 127.663C28.1106 119.243 19.525 103.39 26.7682 95.704C27.6584 94.7541 28.6706 94.2144 29.7617 95.2147C30.0345 95.4594 31.0251 97.7622 30.7165 97.7046C30.1063 97.5823 29.8191 95.4738 29.7761 94.97C29.5822 92.9551 30.4365 86.0755 33.8822 87.7234C37.2131 89.3066 36.3301 94.8117 35.9496 97.7046C35.8132 98.6905 35.6912 99.6764 35.5692 100.662C35.5117 101.202 35.5692 102.72 35.3036 102.26C34.2627 100.475 36.0932 95.1715 36.4163 93.2141C37.7802 84.8665 40.1563 71.172 51.4913 79.167" stroke="#0B0B0F" stroke-width="1.43925" stroke-linejoin="round"/>
<path d="M25.7412 108.031C26.2581 109.514 28.8424 111.493 30.5293 110.615C30.858 110.426 31.1395 110.164 31.3522 109.85C31.5649 109.536 31.7033 109.177 31.7569 108.801C31.8096 108.54 31.8408 108.276 31.8502 108.01V107.664C31.8502 109.103 32.7906 110.24 34.2981 109.665C35.1059 109.36 35.7628 108.75 36.1286 107.966C36.2319 107.725 36.3042 107.471 36.344 107.211C36.344 107.052 36.2794 106.635 36.4086 106.743C36.5378 106.851 36.6455 107.65 36.7316 107.88C36.907 108.344 37.2505 108.725 37.6936 108.946C38.1367 109.168 38.6468 109.214 39.1221 109.075C39.9042 108.78 40.5524 108.209 40.9455 107.47C41.0767 107.205 41.1663 106.921 41.2111 106.628C41.2111 106.491 41.2111 106.081 41.2613 106.218C41.7136 108.182 43.5082 108.564 45.1019 107.455C45.9921 106.788 46.5994 105.809 46.8032 104.714" stroke="#0B0B0F" stroke-width="1.43925" stroke-linejoin="round"/>
<path d="M107.886 148.632C108.181 142.811 108.059 136.96 108.367 131.131C108.453 129.49 108.69 127.871 108.827 126.238C108.77 125.683 108.77 125.123 108.827 124.568C109.114 123.985 110.133 124.18 110.557 124.439C111.835 125.23 112.416 127.684 110.65 128.26C109.408 128.663 108.224 127.756 107.47 126.871C105.596 124.712 104.678 121.697 103.637 119.07C102.05 115.069 100.614 111.154 99.4084 107.009C99.0064 105.642 98.1809 104.224 98.023 102.807C97.7071 100 98.4465 96.7547 99.0064 94.0057C99.4013 92.0843 99.4731 88.551 100.93 87.0901C102.222 85.7948 104.67 86.5792 106.178 87.0398C106.824 87.2341 107.728 87.4356 107.951 88.1696C109.064 91.7677 105.474 95.8696 107.283 99.3957C108.611 101.979 110.291 103.195 111.591 105.966C112.115 107.11 112.933 109.377 110.736 109.032C108.999 108.758 109.466 106.016 109.717 104.858C110.377 101.812 110.716 98.7055 110.729 95.5889C110.729 94.2 110.385 88.5726 109.509 87.4212C107.298 84.4995 104.929 81.7289 102.725 78.7857C101.942 77.7494 100.442 76.159 100.227 74.8133C99.9899 73.3381 102.61 71.3663 103.816 70.8194C105.589 69.999 106.924 71.1648 108.217 72.3594C111.44 75.3315 115.108 78.6417 117.592 82.2399C118.46 83.3725 119.119 84.6521 119.537 86.0179C119.659 86.4929 119.774 87.3492 119.15 87.5435C118.525 87.7378 117.972 86.5936 117.836 86.1043C117.276 84.2332 117.362 82.1679 117.01 80.2537C116.472 77.3752 115.934 74.4247 115.151 71.5822C114.871 70.5675 113.715 68.5958 113.837 67.5955C113.888 67.2285 114.606 66.8399 114.864 66.696C116.056 66.0596 117.438 65.8756 118.755 66.1778C120.19 66.5808 121.21 68.2216 121.885 69.4449C123.545 72.6949 124.817 76.1296 125.675 79.678C126.134 81.4483 126.694 83.564 126.5 85.435C126.5 85.6005 126.17 87.1693 126.012 87.1261C125.381 86.9318 125.431 85.0896 125.445 84.6578C125.445 84.0965 125.495 83.5352 125.553 82.9739C125.682 81.6282 125.366 77.2888 127.577 77.3032C129.788 77.3176 133.514 79.8507 133.93 82.1247C134.347 84.3987 133.313 87.2485 133.026 89.4073C132.832 90.8466 133.026 89.6736 132.796 91.0697C132.724 91.559 132.638 92.0484 132.559 92.5089C132.516 92.732 132.559 93.3293 132.416 93.1782C130.406 91.3935 129.81 87.047 133.629 86.7519C135.132 86.8995 136.594 87.3317 137.936 88.0256C139.738 89.321 142.021 91.7461 142.911 93.8618C143.183 94.5095 142.717 95.6609 142.559 96.3085C142.064 98.3379 141.604 100.382 141.123 102.411C139.989 106.945 139.156 111.608 137.642 116.041C136.582 119.017 135.853 122.101 135.467 125.237C135.293 126.441 135.376 127.667 135.711 128.836C135.775 129.023 136.026 129.793 136.271 129.843C137.613 130.109 137.821 128.325 137.706 127.411C137.706 127.31 137.627 126.518 137.441 126.432C137.254 126.346 136.981 127.627 136.945 127.785C136.706 129.382 136.784 131.011 137.175 132.578C138.202 137.694 140.642 142.732 143.011 147.366" stroke="#0B0B0F" stroke-width="1.43925" stroke-linejoin="round"/>
<path d="M113.766 99.0505C114.383 101.209 116.206 102.785 118.259 101.101C118.652 100.767 118.991 100.374 119.264 99.9357C119.43 99.6766 119.437 98.9354 119.688 99.1153C119.812 99.7244 119.882 100.343 119.896 100.965C120.305 102.721 122.05 103.411 123.722 103.188C124.302 103.083 124.847 102.834 125.306 102.463C125.765 102.092 126.124 101.611 126.35 101.066C126.516 100.716 126.634 100.346 126.701 99.9645C126.701 99.763 126.816 99.1873 126.701 99.3672C125.912 101.094 126.823 103.599 128.934 103.685C129.932 103.728 130.585 102.771 130.872 101.922C130.951 101.677 131.016 101.418 131.073 101.166C131.073 101.03 131.131 100.619 131.131 100.756C131.131 101.476 131.131 102.483 131.647 103.052C133.198 104.678 135.043 101.073 135.28 100.173" stroke="#0B0B0F" stroke-width="1.43925" stroke-linejoin="round"/>
</svg>
