<svg width="176" height="152" viewBox="0 0 176 152" fill="none" xmlns="http://www.w3.org/2000/svg">
<path d="M65.1162 91.1271C75.2667 93.0845 85.9341 90.7385 96.1564 90.4075" stroke="white" stroke-width="1.43925" stroke-linejoin="round"/>
<path d="M33.9688 84.6937C35.6342 81.8152 37.3427 78.8791 39.0368 75.9862C39.4388 75.2666 39.9772 73.4603 40.6305 73.0573C46.1221 69.7327 54.399 70.7689 60.63 70.2364C77.1408 68.7972 93.6874 68.7972 110.22 68.1207" stroke="white" stroke-width="1.43925" stroke-linejoin="round"/>
<path d="M123.062 68.092C124.813 67.7826 129.774 66.4009 131.676 67.3077C133.578 68.2144 135.201 71.3591 136.701 72.9135C139.709 76.0223 141.977 79.4621 144.734 82.7652C147.239 85.7588 150.29 88.7525 152.336 92.1203C152.522 92.4154 151.618 92.0268 151.309 91.9764L149.457 91.7173C147.596 91.463 145.722 91.3164 143.844 91.2784" stroke="white" stroke-width="1.43925" stroke-linejoin="round"/>
<path d="M8.51367 111.485C12.7347 111.744 16.8983 111.291 21.1049 111.363" stroke="white" stroke-width="1.43925" stroke-linejoin="round"/>
<path d="M66.5088 109.693C76.4511 107.858 87.5708 108.88 97.7357 109.067" stroke="white" stroke-width="1.43925" stroke-linejoin="round"/>
<path d="M142.308 106.844C151.276 106.647 160.24 106.535 169.199 106.506" stroke="white" stroke-width="1.43925" stroke-linejoin="round"/>
<path d="M59.9482 118.257C73.2803 116.6 86.7231 116.013 100.148 116.501" stroke="white" stroke-width="1.43925" stroke-linejoin="round"/>
<path d="M48.0458 11.2992C45.6481 14.1777 43.0208 16.9842 40.8672 20.0786" stroke="white" stroke-width="1.43925" stroke-linejoin="round"/>
<path d="M51.7432 11.3495C47.8668 15.6672 43.8468 19.985 40.5303 24.7345" stroke="white" stroke-width="1.43925" stroke-linejoin="round"/>
<path d="M56.107 10.9033C50.9528 17.0633 45.9708 23.3672 40.874 29.5632" stroke="white" stroke-width="1.43925" stroke-linejoin="round"/>
<path d="M60.1421 11.6877C53.7244 19.1143 46.8832 26.4401 41.126 34.4063" stroke="white" stroke-width="1.43925" stroke-linejoin="round"/>
<path d="M67.0197 10.119C58.1398 20.0642 48.9871 29.7288 40.3584 39.8899" stroke="white" stroke-width="1.43925" stroke-linejoin="round"/>
<path d="M71.6783 10.1765C60.6735 20.7046 51.0829 32.4849 40.6309 43.5239" stroke="white" stroke-width="1.43925" stroke-linejoin="round"/>
<path d="M76.2367 9.08289C70.4077 15.3292 65.196 21.8994 59.6398 28.3257C53.179 35.7594 46.1871 43.0348 40.2217 50.8643" stroke="white" stroke-width="1.43925" stroke-linejoin="round"/>
<path d="M82.0581 8.95312C77.9807 13.2061 74.4201 17.9125 70.6154 22.4101C66.5523 27.2532 62.0944 31.8372 57.938 36.6371C52.432 42.9626 45.9354 48.6261 40.8027 55.2394" stroke="white" stroke-width="1.43925" stroke-linejoin="round"/>
<path d="M87.4988 8.8092C76.3289 20.9085 65.183 33.0342 54.061 45.1863C50.0122 49.6479 46.2291 54.3543 42.0225 58.6576" stroke="white" stroke-width="1.43925" stroke-linejoin="round"/>
<path d="M93.2219 8.69409C79.281 22.9211 66.6611 38.4866 52.7274 52.6992C50.9041 54.563 49.3535 56.6715 47.4512 58.4562" stroke="white" stroke-width="1.43925" stroke-linejoin="round"/>
<path d="M99.725 7.98889C95.1307 12.5801 91.1107 17.7398 86.6528 22.3814C78.8927 30.434 70.6086 38.0188 62.9275 46.129C59.1444 50.1301 55.749 54.4695 51.8223 58.3626" stroke="white" stroke-width="1.43925" stroke-linejoin="round"/>
<path d="M104.727 7.56421C99.2645 13.4939 94.0169 19.6107 88.4248 25.4253C77.8651 36.3852 66.7957 46.8341 56.5088 58.0531" stroke="white" stroke-width="1.43925" stroke-linejoin="round"/>
<path d="M108.949 7.62183C95.1369 25.9291 77.5422 40.7822 62.46 57.9956" stroke="white" stroke-width="1.43925" stroke-linejoin="round"/>
<path d="M112.92 8.0896C104.428 19.8986 94.0044 30.5779 83.9831 41.0772C78.793 46.5176 73.2152 51.9148 68.6855 57.9452" stroke="white" stroke-width="1.43925" stroke-linejoin="round"/>
<path d="M76.2578 57.0962C88.8993 46.4385 98.3679 32.4706 108.712 19.6757C111.957 15.6746 114.907 11.5295 118.446 7.78748" stroke="white" stroke-width="1.43925" stroke-linejoin="round"/>
<path d="M122.187 6.77258C108.827 22.6403 97.2482 40.0193 84.7646 56.5706" stroke="white" stroke-width="1.43925" stroke-linejoin="round"/>
<path d="M125.911 7.28381C119.113 15.2429 112.989 23.8352 106.665 32.1397C104.275 35.306 101.705 38.2996 99.4434 41.5667C96.0264 46.489 93.076 51.7566 89.7451 56.7436" stroke="white" stroke-width="1.43925" stroke-linejoin="round"/>
<path d="M126.852 10.5364C123.93 15.0124 120.506 19.1719 117.348 23.4537C109.329 34.3848 101.483 45.3015 94.0674 56.6356" stroke="white" stroke-width="1.43925" stroke-linejoin="round"/>
<path d="M127.527 16.1206C123.371 20.3952 120.887 26.5408 117.592 31.4846C113.521 37.5942 108.705 43.1929 104.369 49.1082C102.56 51.5765 101.052 54.2464 99.3438 56.7794" stroke="white" stroke-width="1.43925" stroke-linejoin="round"/>
<path d="M127.757 23.2018C120.305 34.9892 109.753 44.5531 102.251 56.2614" stroke="white" stroke-width="1.43925" stroke-linejoin="round"/>
<path d="M128.072 28.9586C122.738 39.0909 114.655 47.5753 107.642 56.5347" stroke="white" stroke-width="1.43925" stroke-linejoin="round"/>
<path d="M128.712 34.1688C123.608 41.912 117.226 48.7053 112.201 56.4772" stroke="white" stroke-width="1.43925" stroke-linejoin="round"/>
<path d="M129.049 39.7532C124.857 45.064 120.772 50.454 116.602 55.772" stroke="white" stroke-width="1.43925" stroke-linejoin="round"/>
<path d="M128.935 44.8914C126.006 48.8493 122.768 52.6489 119.646 56.4701" stroke="white" stroke-width="1.43925" stroke-linejoin="round"/>
<path d="M129.072 49.1803C127.392 51.3392 125.935 53.6276 124.047 55.5706" stroke="white" stroke-width="1.43925" stroke-linejoin="round"/>
<path d="M43.2002 12.1268C41.8291 13.6812 40.5011 15.3436 39.2305 16.9843" stroke="white" stroke-width="1.43925" stroke-linejoin="round"/>
<path d="M129.365 55.9879C129.365 43.9917 129.193 31.5206 127.857 19.6252C127.592 17.2576 127.857 9.10429 126.68 7.24766C126.465 6.90224 124.333 6.92383 123.895 6.90944C121.239 6.83747 118.597 7.08215 115.941 7.16131C104.197 7.50673 92.5674 7.77298 80.8375 8.73728C69.883 9.64401 59.0074 10.4068 48.0816 11.6158C47.4643 11.6877 37.7301 12.0476 37.4932 12.2922C36.6461 13.1846 38.5484 14.5447 38.8428 15.7464C39.4033 18.157 39.6756 20.6259 39.654 23.101C39.7401 33.7083 38.6202 49.0723 41.2548 59.3917C41.2548 59.4349 43.6811 59.1974 43.9109 59.183C46.9689 59.0031 50.0342 58.8736 53.0995 58.8232C66.1932 58.6001 79.1721 57.2472 92.2443 56.8586C103.529 56.5204 114.799 56.6139 126.084 56.139C128.604 56.031 131.109 55.9735 133.6 55.6856L135.94 55.4338C134.907 42.5453 134.469 29.6208 134.045 16.6891C133.916 12.8319 133.866 8.97476 133.729 5.12477C133.729 4.20365 134.088 1.82888 133.607 1.05888C133.478 0.842993 130.355 1.28917 129.975 1.30356C126.134 1.48347 122.28 1.50505 118.439 1.65617C102.926 2.24626 87.4634 1.46188 71.9576 2.5701C62.9916 3.21056 54.1547 5.4486 45.1456 5.18953C41.1318 5.00699 37.11 5.12727 33.1143 5.54935C32.2385 5.65729 31.3555 5.76523 30.4797 5.83719C30.4079 5.83719 29.6183 5.88757 29.6183 5.90916C30.3864 19.5245 31.7719 33.2549 33.868 46.7551C34.6146 51.6485 35.3492 56.5468 36.0718 61.4498C36.3159 63.1553 37.2491 65.8324 36.8328 67.5091C33.9039 79.2965 21.3342 92.0483 13.4736 101.677C11.2554 104.397 9.23108 108.089 6.04378 109.773C4.95264 110.348 3.70356 110.917 2.45449 110.615C1.82995 110.463 0.580874 108.888 1.1408 109.211C3.45231 110.535 3.55282 114.285 3.85432 116.623C3.91175 117.084 3.90456 119.387 4.2276 119.603C5.168 120.229 8.71422 119.84 9.90586 119.811C14.6653 119.711 19.238 119.473 23.9615 119.905" stroke="white" stroke-width="1.43925" stroke-linejoin="round"/>
<path d="M39.9922 67.4444C49.913 67.2285 59.7764 65.7676 69.6685 65.1416C83.7098 64.2492 97.665 64.0909 111.764 63.8966C118.11 63.8102 124.441 63.4936 130.787 63.4504C131.943 63.4504 136.027 62.5797 136.91 63.1266C139.703 64.8177 144.024 72.2731 146.645 75.1372C149.064 77.7638 151.54 80.3329 153.967 82.9595C155.812 84.96 157.599 87.0398 159.566 88.9108C164.792 93.8978 171.052 100.533 174.813 106.844C175.345 107.736 174.584 110.809 174.533 111.881C174.469 113.105 174.95 116.012 174.39 117.041C174.099 117.08 173.805 117.08 173.514 117.041C170.966 116.969 168.424 116.911 165.876 116.883C162.452 116.847 159.006 116.336 155.575 116.537C150.349 116.847 144.721 117.797 139.487 117.156" stroke="white" stroke-width="1.43925" stroke-linejoin="round"/>
<path d="M53.9545 143.883C54.7441 136.377 54.8446 128.224 57.3571 121.013C60.164 112.953 70.2284 100.655 62.7913 91.8899C56.0291 83.9164 57.2279 100.525 55.7707 102.562C54.0837 104.958 51.5497 106.736 50.0278 109.276C49.9273 109.442 48.8792 111.809 49.2094 111.852C52.648 112.313 53.172 105.57 53.2797 103.749C53.4807 100.058 52.4829 95.0275 54.0478 91.6596C56.1296 87.2051 61.0685 82.9737 61.7648 77.8932C62.0376 75.9502 58.8575 74.0288 57.271 74.5253C54.2991 75.4537 52.246 78.9294 50.4872 81.3402C48.9008 83.4991 46.8979 85.6579 45.7637 88.1262C44.0767 91.6668 44.1988 96.4595 43.6963 100.36" stroke="white" stroke-width="1.43925" stroke-linejoin="round"/>
<path d="M27.8666 151C27.6081 143.25 29.3023 135.384 28.7423 127.663C28.1106 119.243 19.525 103.39 26.7682 95.704C27.6584 94.7541 28.6706 94.2144 29.7617 95.2147C30.0345 95.4594 31.0251 97.7622 30.7165 97.7046C30.1063 97.5823 29.8191 95.4738 29.7761 94.97C29.5822 92.9551 30.4365 86.0755 33.8822 87.7234C37.2131 89.3066 36.3301 94.8117 35.9496 97.7046C35.8132 98.6905 35.6912 99.6764 35.5692 100.662C35.5117 101.202 35.5692 102.72 35.3036 102.26C34.2627 100.475 36.0932 95.1715 36.4163 93.2141C37.7802 84.8665 40.1563 71.172 51.4913 79.167" stroke="white" stroke-width="1.43925" stroke-linejoin="round"/>
<path d="M25.7412 108.031C26.2581 109.514 28.8424 111.493 30.5293 110.615C30.858 110.426 31.1395 110.164 31.3522 109.85C31.5649 109.536 31.7033 109.177 31.7569 108.801C31.8096 108.54 31.8408 108.276 31.8502 108.01V107.664C31.8502 109.103 32.7906 110.24 34.2981 109.665C35.1059 109.36 35.7628 108.75 36.1286 107.966C36.2319 107.725 36.3042 107.471 36.344 107.211C36.344 107.052 36.2794 106.635 36.4086 106.743C36.5378 106.851 36.6455 107.65 36.7316 107.88C36.907 108.344 37.2505 108.725 37.6936 108.946C38.1367 109.168 38.6468 109.214 39.1221 109.075C39.9042 108.78 40.5524 108.209 40.9455 107.47C41.0767 107.205 41.1663 106.921 41.2111 106.628C41.2111 106.491 41.2111 106.081 41.2613 106.218C41.7136 108.182 43.5082 108.564 45.1019 107.455C45.9921 106.788 46.5994 105.809 46.8032 104.714" stroke="white" stroke-width="1.43925" stroke-linejoin="round"/>
<path d="M107.886 148.632C108.181 142.811 108.059 136.96 108.367 131.131C108.453 129.49 108.69 127.871 108.827 126.238C108.77 125.683 108.77 125.123 108.827 124.568C109.114 123.985 110.133 124.179 110.557 124.439C111.835 125.23 112.416 127.684 110.65 128.26C109.408 128.663 108.224 127.756 107.47 126.871C105.596 124.712 104.678 121.697 103.637 119.07C102.05 115.069 100.614 111.154 99.4084 107.009C99.0064 105.642 98.1809 104.224 98.023 102.807C97.7071 100 98.4465 96.7546 99.0064 94.0056C99.4013 92.0842 99.4731 88.5509 100.93 87.09C102.222 85.7947 104.67 86.5791 106.178 87.0396C106.824 87.2339 107.728 87.4354 107.951 88.1695C109.064 91.7676 105.474 95.8694 107.283 99.3956C108.611 101.979 110.291 103.195 111.591 105.966C112.115 107.11 112.933 109.377 110.736 109.031C108.999 108.758 109.466 106.016 109.717 104.858C110.377 101.812 110.716 98.7054 110.729 95.5888C110.729 94.1999 110.385 88.5724 109.509 87.421C107.298 84.4994 104.929 81.7288 102.725 78.7855C101.942 77.7493 100.442 76.1589 100.227 74.8132C99.9899 73.338 102.61 71.3662 103.816 70.8193C105.589 69.9989 106.924 71.1647 108.217 72.3593C111.44 75.3313 115.108 78.6416 117.592 82.2397C118.46 83.3723 119.119 84.652 119.537 86.0178C119.659 86.4927 119.774 87.3491 119.15 87.5434C118.525 87.7377 117.972 86.5935 117.836 86.1041C117.276 84.2331 117.362 82.1678 117.01 80.2536C116.472 77.3751 115.934 74.4246 115.151 71.5821C114.871 70.5674 113.715 68.5956 113.837 67.5954C113.888 67.2284 114.606 66.8398 114.864 66.6958C116.056 66.0594 117.438 65.8755 118.755 66.1777C120.19 66.5807 121.21 68.2214 121.885 69.4448C123.545 72.6948 124.817 76.1295 125.675 79.6779C126.134 81.4482 126.694 83.5639 126.5 85.4349C126.5 85.6004 126.17 87.1692 126.012 87.126C125.381 86.9317 125.431 85.0895 125.445 84.6577C125.445 84.0964 125.495 83.5351 125.553 82.9738C125.682 81.6281 125.366 77.2887 127.577 77.3031C129.788 77.3175 133.514 79.8506 133.93 82.1246C134.347 84.3986 133.313 87.2483 133.026 89.4072C132.832 90.8465 133.026 89.6735 132.796 91.0695C132.724 91.5589 132.638 92.0482 132.559 92.5088C132.516 92.7319 132.559 93.3292 132.416 93.178C130.406 91.3934 129.81 87.0468 133.629 86.7518C135.132 86.8994 136.594 87.3316 137.936 88.0255C139.738 89.3208 142.021 91.746 142.911 93.8617C143.183 94.5094 142.717 95.6607 142.559 96.3084C142.064 98.3378 141.604 100.381 141.123 102.411C139.989 106.944 139.156 111.608 137.642 116.041C136.582 119.017 135.853 122.101 135.467 125.237C135.293 126.441 135.376 127.667 135.711 128.835C135.775 129.023 136.026 129.793 136.271 129.843C137.613 130.109 137.821 128.325 137.706 127.411C137.706 127.31 137.627 126.518 137.441 126.432C137.254 126.346 136.981 127.626 136.945 127.785C136.706 129.382 136.784 131.011 137.175 132.578C138.202 137.694 140.642 142.731 143.011 147.366" stroke="white" stroke-width="1.43925" stroke-linejoin="round"/>
<path d="M113.766 99.0505C114.383 101.209 116.206 102.785 118.259 101.101C118.652 100.767 118.991 100.374 119.264 99.9357C119.43 99.6766 119.437 98.9354 119.688 99.1153C119.812 99.7244 119.882 100.343 119.896 100.965C120.305 102.721 122.05 103.411 123.722 103.188C124.302 103.083 124.847 102.834 125.306 102.463C125.765 102.092 126.124 101.611 126.35 101.066C126.516 100.716 126.634 100.346 126.701 99.9645C126.701 99.763 126.816 99.1873 126.701 99.3672C125.912 101.094 126.823 103.599 128.934 103.685C129.932 103.728 130.585 102.771 130.872 101.922C130.951 101.677 131.016 101.418 131.073 101.166C131.073 101.03 131.131 100.619 131.131 100.756C131.131 101.476 131.131 102.483 131.647 103.052C133.198 104.678 135.043 101.073 135.28 100.173" stroke="white" stroke-width="1.43925" stroke-linejoin="round"/>
</svg>
